<svg width="60" height="60" viewBox="0 0 60 60" fill="none" xmlns="http://www.w3.org/2000/svg">
<g clip-path="url(#clip0)">
<path d="M58.3822 26.0971C58.3809 26.0957 58.3795 26.0944 58.3781 26.093L33.9029 1.61865C32.8596 0.574951 31.4726 0 29.9972 0C28.5219 0 27.1348 0.574493 26.0911 1.61819L1.6287 26.0802C1.62046 26.0884 1.61176 26.0971 1.60398 26.1053C-0.538356 28.26 -0.534694 31.756 1.61496 33.9052C2.59641 34.8875 3.8928 35.4565 5.27936 35.5161C5.33567 35.5215 5.39289 35.5243 5.45011 35.5243H6.42515V53.5359C6.42515 57.1001 9.32554 60 12.8901 60H22.4656C23.4366 60 24.2235 59.2131 24.2235 58.2422V44.1211C24.2235 42.4947 25.5469 41.1717 27.1733 41.1717H32.8212C34.4476 41.1717 35.7705 42.4947 35.7705 44.1211V58.2422C35.7705 59.2131 36.5579 60 37.5284 60H47.1039C50.6689 60 53.5689 57.1001 53.5689 53.5359V35.5243H54.4734C55.9483 35.5243 57.3353 34.9498 58.3795 33.9061C60.531 31.7532 60.5324 28.2513 58.3822 26.0971Z" fill="white"/>
<path d="M58.3823 26.0971C58.3809 26.0957 58.3795 26.0944 58.3781 26.093L33.9029 1.61865C32.8597 0.574951 31.4726 0 29.9973 0H29.9968V41.1717H32.8212C34.4476 41.1717 35.7706 42.4947 35.7706 44.1211V58.2422C35.7706 59.2131 36.5579 60 37.5284 60H47.1039C50.6689 60 53.5689 57.1001 53.5689 53.5359V35.5243H54.4734C55.9483 35.5243 57.3354 34.9498 58.3795 33.9061C60.531 31.7532 60.5324 28.2513 58.3823 26.0971Z" fill="#DDDDDD"/>
</g>
<defs>
<clipPath id="clip0">
<rect width="60" height="60" fill="white"/>
</clipPath>
</defs>
</svg>
