<svg width="480" height="450" viewBox="0 0 480 450" fill="none" xmlns="http://www.w3.org/2000/svg">
<g opacity="0.1">
<path d="M51.2762 449.623C75.4505 449.623 95.0476 439.905 95.0476 427.916C95.0476 415.928 75.4505 406.209 51.2762 406.209C27.1019 406.209 7.50476 415.928 7.50476 427.916C7.50476 439.905 27.1019 449.623 51.2762 449.623Z" fill="#EBEBEB"/>
</g>
<g opacity="0.3">
<path opacity="0.3" d="M478.095 353.518L477.771 147.588C477.704 146.396 477.37 145.237 476.794 144.204C476.218 143.171 475.418 142.293 474.457 141.641L241.009 1.98237C239.105 0.892057 237.714 1.78413 237.714 3.96474L238.095 209.815C238.158 211.008 238.49 212.169 239.066 213.203C239.643 214.236 240.445 215.113 241.409 215.762L474.876 355.52C476.648 356.61 478.095 355.718 478.095 353.518Z" fill="white"/>
</g>
<path d="M476.305 356.967C475.632 356.94 474.976 356.735 474.4 356.372L240.933 216.615C239.819 215.884 238.891 214.885 238.227 213.701C237.564 212.517 237.185 211.184 237.124 209.815L236.762 3.96475C236.682 3.36105 236.777 2.74632 237.034 2.19871C237.29 1.6511 237.698 1.19533 238.204 0.889347C238.711 0.583361 239.293 0.440967 239.877 0.480279C240.462 0.519592 241.021 0.738826 241.486 1.11012L474.952 140.749C476.065 141.481 476.991 142.482 477.654 143.665C478.317 144.848 478.697 146.18 478.762 147.548L479.086 353.478C479.131 354.079 479.023 354.682 478.772 355.225C478.521 355.768 478.137 356.232 477.657 356.57C477.248 356.826 476.781 356.963 476.305 356.967ZM239.543 2.41849C239.418 2.38403 239.287 2.38403 239.162 2.41849C238.976 2.58518 238.833 2.79773 238.747 3.0367C238.66 3.27567 238.633 3.53343 238.667 3.78634L238.99 209.716C239.045 210.758 239.337 211.771 239.844 212.671C240.351 213.571 241.058 214.332 241.905 214.89L475.371 354.648C475.943 354.985 476.438 355.084 476.743 354.885C477.048 354.687 477.238 354.211 477.238 353.518L476.914 147.588C476.853 146.573 476.567 145.586 476.078 144.706C475.588 143.825 474.91 143.075 474.095 142.513L240.533 2.7555C240.236 2.55735 239.895 2.44137 239.543 2.41849Z" fill="#04D361"/>
<path d="M455.924 308.081C449.733 303.502 446.114 299.359 443.657 267.522L443.448 264.806C441.143 234.892 439.638 215.148 426.533 207C420.248 203.035 415.219 207 409.905 211.302C405.086 215.128 400.133 219.053 394.552 215.742C384.743 209.795 383.124 198.02 380.076 176.531C379.695 173.874 379.314 171.079 378.876 168.145C378.209 163.566 377.638 159.304 377.105 155.3C374.095 132.74 372.267 119.101 361.181 112.143C360.089 111.338 358.832 110.809 357.509 110.599C356.186 110.389 354.835 110.504 353.562 110.934C345.162 113.987 338.59 132.482 331.638 152.088C331.105 153.535 330.59 155.062 330.038 156.588C324.99 171.04 319.276 187.434 311.371 190.467C310.254 190.893 309.058 191.05 307.874 190.926C306.689 190.803 305.547 190.402 304.533 189.753C296.667 185.115 295.257 172.427 293.905 160.137C292.552 147.846 291.238 135.496 283.809 130.837C283.18 130.413 282.459 130.157 281.712 130.091C280.964 130.026 280.213 130.152 279.524 130.46C270.305 134.187 262.133 162.575 262.057 162.852L260.152 162.297C260.495 161.088 268.667 132.7 278.743 128.597C279.705 128.182 280.749 128.014 281.787 128.107C282.824 128.201 283.825 128.552 284.705 129.132C292.914 134.247 294.343 147.271 295.733 159.859C297.124 172.447 298.381 183.846 305.429 187.989C306.197 188.497 307.068 188.813 307.973 188.913C308.879 189.013 309.794 188.893 310.648 188.564C317.714 185.848 323.524 169.236 328.19 155.874C328.743 154.328 329.257 152.822 329.79 151.355C337.219 130.441 343.638 112.381 352.876 109.011C354.407 108.494 356.032 108.353 357.625 108.597C359.217 108.841 360.734 109.464 362.057 110.418C373.905 117.872 375.79 131.848 378.876 155.002C379.409 158.967 379.981 163.249 380.648 167.808C381.086 170.762 381.467 173.557 381.848 176.194C384.762 197.088 386.381 208.586 395.39 213.978C399.867 216.654 403.924 213.423 408.629 209.696C413.962 205.454 420.057 200.676 427.39 205.255C441.314 213.938 442.876 234.099 445.219 264.608L445.429 267.324C447.943 299.795 451.714 302.57 456.857 306.436L455.924 308.081Z" fill="#04D361"/>
<g opacity="0.4">
<path opacity="0.4" d="M455.924 308.081C449.733 303.502 446.114 299.359 443.657 267.522L443.448 264.806C441.143 234.892 439.638 215.148 426.533 207C420.248 203.035 415.219 207 409.905 211.302C405.086 215.128 400.133 219.053 394.552 215.742C384.743 209.795 383.124 198.02 380.076 176.531C379.695 173.874 379.314 171.079 378.876 168.145C378.209 163.566 377.638 159.304 377.105 155.3C374.095 132.74 372.267 119.101 361.181 112.143C360.089 111.338 358.832 110.809 357.509 110.599C356.186 110.389 354.835 110.504 353.562 110.934C345.162 113.987 338.59 132.482 331.638 152.088C331.105 153.535 330.59 155.062 330.038 156.588C324.99 171.04 319.276 187.434 311.371 190.467C310.254 190.893 309.058 191.05 307.874 190.926C306.689 190.803 305.547 190.402 304.533 189.753C296.667 185.115 295.257 172.427 293.905 160.137C292.552 147.846 291.238 135.496 283.809 130.837C283.18 130.413 282.459 130.157 281.712 130.091C280.964 130.026 280.213 130.152 279.524 130.46C270.305 134.187 262.133 162.575 262.057 162.852L260.152 162.297C260.495 161.088 268.667 132.7 278.743 128.597C279.705 128.182 280.749 128.014 281.787 128.107C282.824 128.201 283.825 128.552 284.705 129.132C292.914 134.247 294.343 147.271 295.733 159.859C297.124 172.447 298.381 183.846 305.429 187.989C306.197 188.497 307.068 188.813 307.973 188.913C308.879 189.013 309.794 188.893 310.648 188.564C317.714 185.848 323.524 169.236 328.19 155.874C328.743 154.328 329.257 152.822 329.79 151.355C337.219 130.441 343.638 112.381 352.876 109.011C354.407 108.494 356.032 108.353 357.625 108.597C359.217 108.841 360.734 109.464 362.057 110.418C373.905 117.872 375.79 131.848 378.876 155.002C379.409 158.967 379.981 163.249 380.648 167.808C381.086 170.762 381.467 173.557 381.848 176.194C384.762 197.088 386.381 208.586 395.39 213.978C399.867 216.654 403.924 213.423 408.629 209.696C413.962 205.454 420.057 200.676 427.39 205.255C441.314 213.938 442.876 234.099 445.219 264.608L445.429 267.324C447.943 299.795 451.714 302.57 456.857 306.436L455.924 308.081Z" fill="black"/>
</g>
<path d="M423.714 198.238C425.131 199.204 426.311 200.501 427.161 202.026C428.011 203.55 428.507 205.26 428.609 207.02C428.609 210.251 426.419 211.559 423.733 209.954C422.31 208.995 421.125 207.699 420.275 206.173C419.424 204.647 418.932 202.933 418.838 201.172C418.838 198.02 420.952 196.711 423.714 198.238Z" fill="#04D361"/>
<g opacity="0.2">
<path opacity="0.2" d="M423.714 198.238C425.131 199.204 426.311 200.501 427.161 202.026C428.011 203.55 428.507 205.26 428.609 207.02C428.609 210.251 426.419 211.559 423.733 209.954C422.31 208.995 421.125 207.699 420.275 206.173C419.424 204.647 418.932 202.933 418.838 201.172C418.838 198.02 420.952 196.711 423.714 198.238Z" fill="black"/>
</g>
<path d="M361.676 105.443C363.094 106.405 364.275 107.702 365.122 109.227C365.969 110.753 366.459 112.465 366.552 114.225C366.552 117.456 364.381 118.764 361.695 117.159C360.271 116.201 359.085 114.906 358.235 113.379C357.384 111.853 356.892 110.139 356.8 108.377C356.8 105.066 358.971 103.837 361.676 105.443Z" fill="#04D361"/>
<g opacity="0.5">
<path opacity="0.5" d="M361.676 105.443C363.094 106.405 364.275 107.702 365.122 109.227C365.969 110.753 366.459 112.465 366.552 114.225C366.552 117.456 364.381 118.764 361.695 117.159C360.271 116.201 359.085 114.906 358.235 113.379C357.384 111.853 356.892 110.139 356.8 108.377C356.8 105.066 358.971 103.837 361.676 105.443Z" fill="white"/>
</g>
<path d="M284.324 124.176C285.747 125.13 286.933 126.421 287.784 127.944C288.635 129.467 289.127 131.179 289.219 132.938C289.219 136.189 287.048 137.498 284.343 135.892C282.926 134.928 281.746 133.632 280.899 132.106C280.052 130.581 279.561 128.869 279.467 127.11C279.448 123.879 281.638 122.551 284.324 124.176Z" fill="#04D361"/>
<path opacity="0.1" d="M354.038 344.438V138.509C353.975 137.318 353.644 136.16 353.071 135.127C352.499 134.094 351.701 133.215 350.743 132.562L148.438 11.0022C146.533 9.91186 145.143 10.8039 145.143 12.9846V218.914C145.205 220.105 145.535 221.264 146.108 222.297C146.68 223.331 147.479 224.209 148.438 224.861L350.743 346.421C352.571 347.531 354.038 346.639 354.038 344.438Z" fill="white"/>
<path d="M352.229 347.888C351.555 347.86 350.9 347.656 350.324 347.293L147.962 225.733C146.85 224.995 145.925 223.991 145.262 222.805C144.599 221.619 144.219 220.285 144.152 218.914V12.9846C144.077 12.3825 144.175 11.7707 144.434 11.2264C144.692 10.6822 145.1 10.2299 145.605 9.92659C146.111 9.6233 146.691 9.48264 147.273 9.52236C147.855 9.56208 148.413 9.78041 148.876 10.1498L351.181 131.709C352.292 132.443 353.218 133.443 353.881 134.627C354.544 135.81 354.924 137.141 354.99 138.509V344.438C355.036 345.039 354.928 345.642 354.677 346.185C354.426 346.728 354.041 347.193 353.562 347.531C353.155 347.769 352.695 347.892 352.229 347.888ZM146.971 11.5374C146.846 11.5039 146.715 11.5039 146.59 11.5374C146.405 11.7041 146.262 11.9167 146.175 12.1556C146.089 12.3946 146.061 12.6524 146.095 12.9053V218.914C146.155 219.932 146.441 220.922 146.93 221.806C147.419 222.69 148.098 223.444 148.914 224.009L351.219 345.568C351.413 345.726 351.642 345.831 351.885 345.872C352.128 345.914 352.377 345.891 352.609 345.806C352.914 345.628 353.086 345.132 353.086 344.438V138.509C353.027 137.493 352.742 136.505 352.253 135.624C351.763 134.743 351.083 133.993 350.267 133.434L147.962 11.8943C147.67 11.6812 147.327 11.5576 146.971 11.5374Z" fill="#04D361"/>
<path d="M319.238 297.634V162.119C319.205 161.523 319.038 160.943 318.75 160.426C318.463 159.91 318.062 159.471 317.581 159.145L297.676 147.251C296.762 146.696 296.019 147.132 296.019 148.242V283.678C296.047 284.276 296.212 284.857 296.501 285.375C296.789 285.892 297.192 286.33 297.676 286.652L317.581 298.546C318.495 299.181 319.238 298.725 319.238 297.634Z" fill="#04D361"/>
<g opacity="0.3">
<path opacity="0.3" d="M319.238 297.634V162.119C319.205 161.523 319.038 160.943 318.75 160.426C318.463 159.91 318.062 159.471 317.581 159.145L297.676 147.251C296.762 146.696 296.019 147.132 296.019 148.242V283.678C296.047 284.276 296.212 284.857 296.501 285.375C296.789 285.892 297.192 286.33 297.676 286.652L317.581 298.546C318.495 299.181 319.238 298.725 319.238 297.634Z" fill="black"/>
</g>
<path d="M280.552 274.381V203.967C280.52 203.371 280.353 202.791 280.065 202.274C279.777 201.758 279.376 201.319 278.895 200.993L258.971 189.099C258.076 188.564 257.333 189.099 257.333 190.09V260.524C257.367 261.118 257.532 261.695 257.816 262.211C258.101 262.727 258.496 263.168 258.971 263.498L278.895 275.392C279.809 275.927 280.552 275.551 280.552 274.381Z" fill="#04D361"/>
<g opacity="0.2">
<path opacity="0.2" d="M280.552 274.381V203.967C280.52 203.371 280.353 202.791 280.065 202.274C279.777 201.758 279.376 201.319 278.895 200.993L258.971 189.099C258.076 188.564 257.333 189.099 257.333 190.09V260.524C257.367 261.118 257.532 261.695 257.816 262.211C258.101 262.727 258.496 263.168 258.971 263.498L278.895 275.392C279.809 275.927 280.552 275.551 280.552 274.381Z" fill="white"/>
</g>
<path d="M241.905 251.148V143.524C241.872 142.928 241.705 142.348 241.417 141.832C241.129 141.315 240.729 140.876 240.248 140.551L220.324 128.656C219.429 128.101 218.686 128.537 218.686 129.648V237.251C218.716 237.846 218.88 238.424 219.165 238.941C219.449 239.457 219.846 239.897 220.324 240.225L240.248 252.119C241.124 252.674 241.905 252.238 241.905 251.148Z" fill="#04D361"/>
<g opacity="0.2">
<path opacity="0.2" d="M241.905 251.148V143.524C241.872 142.928 241.705 142.348 241.417 141.832C241.129 141.315 240.729 140.876 240.248 140.551L220.324 128.656C219.429 128.101 218.686 128.537 218.686 129.648V237.251C218.716 237.846 218.88 238.424 219.165 238.941C219.449 239.457 219.846 239.897 220.324 240.225L240.248 252.119C241.124 252.674 241.905 252.238 241.905 251.148Z" fill="black"/>
</g>
<path d="M203.162 227.974V73.7841C203.133 73.1893 202.969 72.61 202.685 72.0934C202.4 71.5767 202.002 71.1372 201.524 70.8105L181.6 58.9163C180.705 58.3612 179.962 58.9163 179.962 59.9075V214.018C179.995 214.611 180.161 215.189 180.445 215.705C180.729 216.221 181.125 216.661 181.6 216.991L201.524 228.885C202.438 229.441 203.162 228.985 203.162 227.974Z" fill="#04D361"/>
<path d="M48.2095 415.566L55.2381 425.736C52.0338 427.276 48.5385 428.048 45.0095 427.996C38.7238 428.253 36.9904 426.013 36.7619 425.577C35.6952 423.218 37.3523 418.936 37.8095 415.249L48.2095 415.566Z" fill="#37474F"/>
<path d="M36.7619 405.337C36.7619 405.337 37.8286 414.575 37.9048 416.557C37.9809 418.54 46.5714 419.194 48.2095 415.566L48.4571 404.267L36.7619 405.337Z" fill="#F28F8F"/>
<path d="M36.762 223.335C30.8953 232.85 25.3334 241.176 24.1143 251.921C21.6 274.5 29.8286 300.311 31.6 317.002C28.2693 321.765 26.3433 327.434 26.0572 333.317C26.0572 340.216 36.762 405.337 36.762 405.337C36.762 405.337 44.5334 407.815 48.4572 404.267L55.8096 284.471L52 269.881L36.762 223.335Z" fill="#04D361"/>
<path opacity="0.5" d="M36.762 223.335C30.8953 232.85 25.3334 241.176 24.1143 251.921C21.6 274.5 29.8286 300.311 31.6 317.002C28.2693 321.765 26.3433 327.434 26.0572 333.317C26.0572 340.216 36.762 405.337 36.762 405.337C36.762 405.337 44.5334 407.815 48.4572 404.267L55.8096 284.471L52 269.881L36.762 223.335Z" fill="white"/>
<path d="M90.9905 178.711L129.676 198.04L106.457 252.377L70.381 230.709L90.9905 178.711Z" fill="#04D361"/>
<path d="M125.124 199.031L105.086 245.339L77.3143 228.687L93.0667 183.112L125.124 199.031Z" fill="#04D361"/>
<path d="M93.0666 183.112L125.124 199.031L103.486 245.835L73.1619 227.815L93.0666 183.112Z" fill="white"/>
<path d="M100.038 189.813L100.781 188.148C101.2 187.236 103.848 187.612 106.705 189.02L112.171 191.716C115.029 193.104 116.99 195.007 116.59 195.919L115.829 197.584L100.038 189.813Z" fill="#E0E0E0"/>
<path d="M23.6381 198.238C20.819 206.604 15.2381 219.885 17.0285 222.562C18.819 225.238 29.5619 224.663 35.5428 224.425C43.1619 224.128 49.4857 223.811 49.4857 223.811L48.2095 209.934H37.3904L42.1523 195.899L23.6381 198.238Z" fill="#F28F8F"/>
<path d="M34.4762 168.502C30.5333 175.242 22.5714 199.031 22.5714 199.031C24.7835 201.642 27.7177 203.477 30.9714 204.284C33.8129 205.192 36.8323 205.315 39.7333 204.641L48.5333 181.844L34.4762 168.502Z" fill="#04D361"/>
<path opacity="0.4" d="M34.4762 168.502C30.5333 175.242 22.5714 199.031 22.5714 199.031C24.7835 201.642 27.7177 203.477 30.9714 204.284C33.8129 205.192 36.8323 205.315 39.7333 204.641L48.5333 181.844L34.4762 168.502Z" fill="black"/>
<path d="M73.8476 172.745C80.7619 174.905 84.9714 175.282 92.6095 187.513C100.248 199.744 116.971 224.009 118.629 226.923C120.933 230.888 121.924 235.804 119.943 239.531C117.962 243.258 112.686 241.513 105.105 234.555C97.5238 227.597 83.238 208.943 83.238 208.943C83.238 208.943 68.3428 191.478 73.8476 172.745Z" fill="#FFA8A7"/>
<path d="M68.3238 156.885L66.4572 174.073L50.1524 176.035L52.5143 153.218L68.3238 156.885Z" fill="#FFA8A7"/>
<path d="M33.4476 131.769C34.8 115.91 42.9714 109.348 49.4667 107.782C62.3619 104.61 73.8667 109.487 79.0857 118.903C80.4572 121.381 82.7619 130.659 78.1715 136.13C73.581 141.601 33.4476 131.769 33.4476 131.769Z" fill="#263238"/>
<path d="M80.3619 137.359C80.3619 137.359 83.7524 143.306 83.2381 143.98C82.3367 144.525 81.3502 144.901 80.3238 145.09L80.3619 137.359Z" fill="#F28F8F"/>
<path d="M70.0762 118.229C73.581 120.39 79.6 124.335 80.4191 138.211C81.2762 152.465 78.6667 156.846 76.6096 158.59C75.2953 159.78 68.5524 159.383 65.181 158.095C61.0476 156.469 51.8476 152.048 47.8857 144.476C43.3143 135.575 42.9143 124.057 48.9714 119.914C52.0597 117.785 55.6197 116.512 59.3134 116.217C63.0072 115.922 66.712 116.615 70.0762 118.229Z" fill="#FFA8A7"/>
<path d="M71.1048 118.943C71.1048 118.943 73.5238 132.046 69.3333 139.976C69.3333 139.976 67.4286 134.802 63.1619 136.011C58.8952 137.22 58.9524 143.048 62.0952 146.22C62.8914 147.123 63.9164 147.773 65.0521 148.096C66.1877 148.418 67.3879 148.4 68.5143 148.044C67.922 152.125 66.0936 155.903 63.2952 158.828C58.8531 159.898 54.2109 159.639 49.9039 158.082C45.5969 156.524 41.8005 153.732 38.9524 150.026C29.4286 138.251 31.9238 118.308 47.0286 114.026C62.1333 109.745 71.1048 118.943 71.1048 118.943Z" fill="#263238"/>
<path d="M54.8381 420.859C54.8381 420.859 63.3714 420.284 69.2571 419.511C75.1429 418.738 79.8095 421.731 78.419 424.269C77.0286 426.806 73.7905 428.888 68.7428 430.652C64.419 432.178 59.219 433.269 54.7238 434.617C50.2286 435.965 47.1048 437.709 44.4952 436.778C41.581 435.727 40.3238 434.518 40.5714 432.297C41.2075 429.139 41.9958 426.016 42.9333 422.941L54.8381 420.859Z" fill="#37474F"/>
<path d="M45.4095 411.026L42.3428 425.042C42.3428 425.042 42.0571 426.747 49.0666 427.837C56.0761 428.927 67.0857 424.031 68.9714 423.02C70.8571 422.009 71.0666 420.046 64.1714 420.443C57.2761 420.839 54.838 420.859 54.838 420.859L57.1428 414.634L45.4095 411.026Z" fill="#FFA8A7"/>
<path d="M55.8095 284.471L52 269.881C44.7059 267.883 37.6708 264.974 31.0476 261.218C31.0476 261.218 35.0095 268.731 46.2857 272.835L52.2095 291.588L52.7238 334.487L55.8095 284.471Z" fill="#04D361"/>
<path d="M36.7619 223.335C33.619 228.667 26.1143 237.806 27.6952 246.568C29.6 257.214 35.1428 264.667 51.9428 269.881L67.7143 329.352C67.7143 329.352 59.5047 337.282 56.9905 344.954C54.4762 352.626 45.4095 411.086 45.4095 411.086C45.4095 411.086 48.2095 415.844 57.0666 414.694C57.0666 414.694 87.9428 341.346 90.1333 336.568C92.7467 331.758 93.6693 326.151 92.7428 320.709C91.7714 312.998 81.3143 228.806 81.3143 228.806L36.7619 223.335Z" fill="#04D361"/>
<path opacity="0.5" d="M36.7619 223.335C33.619 228.667 26.1143 237.806 27.6952 246.568C29.6 257.214 35.1428 264.667 51.9428 269.881L67.7143 329.352C67.7143 329.352 59.5047 337.282 56.9905 344.954C54.4762 352.626 45.4095 411.086 45.4095 411.086C45.4095 411.086 48.2095 415.844 57.0666 414.694C57.0666 414.694 87.9428 341.346 90.1333 336.568C92.7467 331.758 93.6693 326.151 92.7428 320.709C91.7714 312.998 81.3143 228.806 81.3143 228.806L36.7619 223.335Z" fill="white"/>
<path d="M33.9048 169.731C35.1238 166.361 39.0095 163.546 42.5143 164.537C53.5048 167.65 70.5905 171.753 73.8476 172.744C73.8476 172.744 72.4 198.515 85.0476 206.207C84.4571 211.104 81.2381 228.667 81.2381 228.667C81.2381 228.667 66 236.359 53.5048 232.632C41.0095 228.905 36.7619 223.394 36.7619 223.394L43.0286 212.769C41.6952 209.3 36.5143 197.584 33.181 186.681C31.9552 181.066 32.2052 175.211 33.9048 169.731Z" fill="#04D361"/>
<path opacity="0.2" d="M33.9048 169.731C35.1238 166.361 39.0095 163.546 42.5143 164.537C53.5048 167.65 70.5905 171.753 73.8476 172.744C73.8476 172.744 72.4 198.515 85.0476 206.207C84.4571 211.104 81.2381 228.667 81.2381 228.667C81.2381 228.667 66 236.359 53.5048 232.632C41.0095 228.905 36.7619 223.394 36.7619 223.394L43.0286 212.769C41.6952 209.3 36.5143 197.584 33.181 186.681C31.9552 181.066 32.2052 175.211 33.9048 169.731Z" fill="black"/>
<path opacity="0.25" d="M41.3143 208.526C46.5231 211.787 51.9832 214.592 57.6381 216.912C52.5066 216.809 47.4825 215.363 43.0285 212.709L41.3143 208.526Z" fill="#04D361"/>
<path d="M44.5524 111.311C44.5524 111.311 39.3333 102.053 26.5524 104.452C13.7714 106.85 8.59046 120.965 8.78094 129.905C8.97141 138.846 11.8476 145.09 4.15236 155.676C2.63563 157.764 1.56686 160.166 1.0182 162.72C0.469542 165.274 0.453762 167.921 0.971917 170.482C1.49007 173.043 2.53011 175.459 4.02182 177.566C5.51354 179.673 7.42222 181.422 9.61903 182.696C19.8857 188.643 22.3809 178.295 20 169.454C17.2571 159.324 27.4476 157.559 30.1714 149.888C32.8952 142.216 27.5428 126.099 30.9714 120.628C34.7809 114.681 39.9238 115.513 42.4 117.535L44.5524 111.311Z" fill="#263238"/>
<path d="M73.8476 172.745C77.2636 173.5 80.6002 174.602 83.8095 176.035C88 178.176 104.343 204.879 104.343 204.879C104.343 204.879 103.181 214.93 89.8095 218.914L81.9047 208.526C81.9047 208.526 70.2857 190.467 73.8476 172.745Z" fill="#04D361"/>
<path opacity="0.1" d="M73.8476 172.745C77.2636 173.5 80.6002 174.602 83.8095 176.035C88 178.176 104.343 204.879 104.343 204.879C104.343 204.879 103.181 214.93 89.8095 218.914L81.9047 208.526C81.9047 208.526 70.2857 190.467 73.8476 172.745Z" fill="black"/>
<path d="M84.2286 211.659C80.7164 207.404 78.0665 202.455 76.4381 197.108C76.4381 197.108 76.4381 208.645 83.7333 214.612L84.2286 211.659Z" fill="#04D361"/>
<path opacity="0.4" d="M84.2286 211.659C80.7164 207.404 78.0665 202.455 76.4381 197.108C76.4381 197.108 76.4381 208.645 83.7333 214.612L84.2286 211.659Z" fill="black"/>
<path d="M101.429 182.637C101.676 182.062 102.838 182.101 104.019 182.637L106.152 183.727C106.152 183.727 107.81 180.139 112.762 182.3C117.714 184.46 116.19 188.604 116.19 188.604L118.457 189.813C119.714 190.467 120.552 191.478 120.362 192.073L119.981 193.123L100.933 183.608L101.429 182.637Z" fill="#455A64"/>
<path d="M103.371 184.896C105.162 185.729 105.848 186.126 105.276 187.553C104.705 188.98 103.886 190.348 103.886 190.348L112.305 194.551C112.305 194.551 113.2 192.568 113.581 191.696C113.962 190.824 114.648 190.487 115.981 191.161L116.552 190.566L103.219 184.123L103.371 184.896Z" fill="#455A64"/>
<path d="M99.8857 189.317L100.648 187.652C101.067 186.72 103.714 187.117 106.571 188.524L112.038 191.22C114.876 192.608 116.857 194.491 116.438 195.423L115.676 197.088L99.8857 189.317Z" fill="#455A64"/>
</svg>
