<svg width="480" height="446" viewBox="0 0 480 446" fill="none" xmlns="http://www.w3.org/2000/svg">
<path d="M70.3129 412.366C164.031 457.029 315.97 457.042 409.687 412.366C503.405 367.69 503.391 295.284 409.687 250.622C315.983 205.959 164.031 205.959 70.3129 250.622C-23.4047 295.284 -23.3911 367.704 70.3129 412.366Z" fill="#F5F5F5" fill-opacity="0.1"/>
<g opacity="0.1">
<path d="M409.361 379.359C426.621 379.359 440.614 372.692 440.614 364.467C440.614 356.243 426.621 349.575 409.361 349.575C392.1 349.575 378.108 356.243 378.108 364.467C378.108 372.692 392.1 379.359 409.361 379.359Z" fill="#EBEBEB"/>
</g>
<path d="M63.2 366.602L74.2568 360.224C80.4301 355.186 85.1287 348.575 87.8568 341.089C91.2704 331.678 90.7944 324.524 88.3464 320.934C85.3408 316.514 77.548 317.289 77.2352 326.591C76.5824 344.924 71.2376 357.64 63.2 366.602Z" fill="#04D361"/>
<path opacity="0.2" d="M63.2 366.602L74.2568 360.224C80.4301 355.186 85.1287 348.575 87.8568 341.089C91.2704 331.678 90.7944 324.524 88.3464 320.934C85.3408 316.514 77.548 317.289 77.2352 326.591C76.5824 344.924 71.2376 357.64 63.2 366.602Z" fill="black"/>
<path d="M63.2 367.282C63.056 367.281 62.9163 367.233 62.801 367.147C62.6857 367.061 62.6007 366.94 62.5584 366.802C62.516 366.665 62.5185 366.517 62.5654 366.381C62.6122 366.245 62.7011 366.127 62.8192 366.045C88.3872 348.365 83.4368 323.708 83.3824 323.463C83.3636 323.374 83.3627 323.282 83.3795 323.192C83.3964 323.102 83.4307 323.017 83.4806 322.941C83.5305 322.864 83.5949 322.798 83.6702 322.747C83.7456 322.695 83.8303 322.659 83.9196 322.64C84.0089 322.622 84.101 322.621 84.1907 322.637C84.2804 322.654 84.3659 322.689 84.4423 322.739C84.5187 322.788 84.5845 322.853 84.636 322.928C84.6875 323.004 84.7236 323.088 84.7424 323.178C84.7424 323.436 89.9648 348.936 63.6352 367.16C63.5074 367.247 63.3545 367.29 63.2 367.282Z" fill="white"/>
<path d="M41.0456 379.4C41.0456 379.4 37.1968 376.272 38.1216 372.029C39.0464 367.786 41.5352 364.739 37.2784 359.272C33.0216 353.805 31.8384 346.515 36.9248 342.571C40.8008 339.511 46.8528 343.836 49.0288 335.771C50.6336 329.869 50.0896 316.799 57.6104 312.447C65.1312 308.095 69.8504 314.65 68.6672 323.518C67.6336 331.446 66.1648 339.076 67.3072 341.198C69.5104 345.278 73.2776 344.72 73.1008 352.173C72.9512 359.109 66.3824 364.848 66.3824 364.848L41.0456 379.4Z" fill="#04D361"/>
<path d="M53.68 372.75C53.5137 372.748 53.3536 372.687 53.2288 372.577C53.104 372.467 53.0228 372.316 53 372.151C51.0552 356.035 55.72 328.21 59.528 319.941C59.56 319.849 59.6114 319.765 59.6786 319.695C59.7457 319.625 59.8271 319.57 59.9173 319.534C60.0076 319.498 60.1045 319.481 60.2015 319.486C60.2986 319.49 60.3935 319.516 60.48 319.56C60.5612 319.597 60.6342 319.649 60.6948 319.714C60.7553 319.779 60.8022 319.856 60.8327 319.94C60.8631 320.024 60.8764 320.112 60.8719 320.201C60.8674 320.29 60.8451 320.377 60.8064 320.458C57.0392 328.618 52.5376 356.525 54.4008 371.934C54.4199 372.112 54.3677 372.291 54.2556 372.431C54.1436 372.571 53.9806 372.661 53.8024 372.682L53.68 372.75Z" fill="white"/>
<path d="M53.313 360.197C53.2089 360.202 53.1054 360.178 53.0138 360.129C48.2946 357.83 45.3026 349.63 45.1802 349.249C45.1468 349.164 45.1308 349.074 45.133 348.983C45.1352 348.892 45.1557 348.803 45.1931 348.72C45.2305 348.637 45.2842 348.562 45.3509 348.501C45.4176 348.439 45.496 348.391 45.5815 348.36C45.667 348.329 45.7578 348.316 45.8486 348.32C45.9394 348.325 46.0283 348.348 46.1101 348.388C46.1919 348.428 46.2648 348.483 46.3247 348.552C46.3845 348.62 46.4301 348.7 46.4586 348.786C46.4586 348.868 49.3825 356.81 53.6122 358.864C53.7509 358.931 53.8627 359.044 53.9292 359.183C53.9957 359.322 54.013 359.479 53.9782 359.629C53.9434 359.78 53.8587 359.914 53.7378 360.009C53.6169 360.105 53.4671 360.157 53.313 360.156V360.197Z" fill="white"/>
<path d="M53.2313 365.637C53.0951 365.637 52.962 365.595 52.8502 365.517C52.7383 365.44 52.653 365.329 52.6057 365.202C52.5381 365.036 52.5387 364.85 52.6074 364.684C52.6762 364.518 52.8076 364.387 52.9729 364.318C60.9153 361.135 65.8657 351.683 65.9201 351.574C66.0031 351.414 66.1464 351.293 66.3186 351.238C66.4907 351.183 66.6776 351.199 66.8381 351.282C66.9986 351.365 67.1196 351.508 67.1745 351.68C67.2293 351.853 67.2135 352.039 67.1305 352.2C66.9129 352.608 61.8945 362.21 53.5305 365.582C53.4373 365.627 53.3341 365.645 53.2313 365.637Z" fill="white"/>
<path d="M330.848 292.469C330.848 292.469 324.905 282.84 324.32 272.382C323.735 261.923 326.034 257.571 329.189 256.32C332.344 255.069 332.589 258.918 334.207 261.189C335.826 263.46 339.131 262.168 340.355 255.082C341.579 247.997 346.039 236.042 355.315 233.717C365.515 231.187 360.047 243.155 357.477 247.82C354.907 252.485 352.921 258.85 354.607 260.577C356.294 262.304 358.919 259.108 361.407 262.073C364.44 265.65 355.015 278.529 349.603 281.643L330.848 292.469Z" fill="#04D361"/>
<path d="M338.994 288.43C338.905 288.426 338.817 288.405 338.736 288.368C338.655 288.33 338.582 288.277 338.521 288.211C338.461 288.146 338.414 288.069 338.383 287.985C338.352 287.901 338.338 287.812 338.342 287.722C339.263 270.899 344.509 254.597 353.574 240.394C353.625 240.32 353.691 240.258 353.767 240.21C353.843 240.162 353.929 240.13 354.018 240.116C354.107 240.102 354.197 240.106 354.285 240.128C354.372 240.151 354.454 240.19 354.526 240.245C354.668 240.351 354.764 240.508 354.792 240.684C354.819 240.859 354.778 241.038 354.675 241.183C345.773 255.178 340.621 271.229 339.715 287.79C339.71 287.88 339.687 287.967 339.648 288.048C339.609 288.128 339.555 288.2 339.488 288.26C339.421 288.319 339.343 288.365 339.258 288.394C339.173 288.423 339.084 288.435 338.994 288.43Z" fill="white"/>
<path d="M339.77 280.392C339.656 280.391 339.544 280.363 339.443 280.31C335.635 278.202 333.527 271.946 333.446 271.688C333.416 271.603 333.403 271.513 333.408 271.423C333.413 271.334 333.435 271.246 333.475 271.165C333.514 271.084 333.569 271.011 333.636 270.952C333.703 270.892 333.782 270.847 333.867 270.818C334.038 270.762 334.225 270.776 334.386 270.858C334.546 270.94 334.668 271.082 334.724 271.253C334.724 271.253 336.764 277.278 340.164 279.114C340.318 279.205 340.431 279.352 340.479 279.524C340.527 279.696 340.507 279.881 340.422 280.038C340.361 280.155 340.266 280.252 340.15 280.315C340.034 280.377 339.901 280.404 339.77 280.392Z" fill="white"/>
<path d="M340.436 276.271C340.285 276.27 340.139 276.218 340.021 276.124C339.903 276.031 339.819 275.901 339.783 275.754C339.761 275.669 339.756 275.579 339.769 275.492C339.781 275.404 339.811 275.32 339.857 275.244C339.902 275.168 339.963 275.102 340.034 275.049C340.105 274.997 340.187 274.959 340.273 274.938C350.092 272.45 353.492 267.309 353.519 267.254C353.567 267.179 353.63 267.113 353.704 267.061C353.777 267.009 353.86 266.973 353.948 266.953C354.036 266.934 354.127 266.932 354.215 266.947C354.304 266.963 354.389 266.995 354.464 267.044C354.54 267.092 354.606 267.155 354.658 267.228C354.709 267.302 354.746 267.385 354.766 267.473C354.785 267.56 354.787 267.651 354.772 267.74C354.756 267.828 354.724 267.913 354.675 267.989C354.526 268.22 350.99 273.619 340.613 276.258L340.436 276.271Z" fill="white"/>
<path d="M182.88 271.334C182.88 271.334 169.838 268.152 169.158 243.726C168.437 217.37 172.354 186.606 156.918 184.118C141.482 181.629 132.914 200.438 133.104 222.402C133.281 241.632 141.033 283.384 182.826 291.571L182.88 271.334Z" fill="#04D361"/>
<path opacity="0.2" d="M182.88 271.334C182.88 271.334 169.838 268.152 169.158 243.726C168.437 217.37 172.354 186.606 156.918 184.118C141.482 181.629 132.914 200.438 133.104 222.402C133.281 241.632 141.033 283.384 182.826 291.571L182.88 271.334Z" fill="black"/>
<path d="M182.88 289.069H182.758C173.36 287.355 165.703 282.174 160.005 273.687C143.114 248.486 148.431 201.43 150.186 193.216C150.225 193.041 150.33 192.888 150.48 192.789C150.629 192.69 150.812 192.653 150.988 192.686C151.164 192.728 151.317 192.836 151.416 192.988C151.515 193.14 151.551 193.324 151.518 193.502C149.791 201.662 144.501 248.119 161.134 272.926C163.555 276.773 166.749 280.074 170.513 282.622C174.278 285.169 178.531 286.906 183.002 287.722C183.091 287.739 183.176 287.772 183.251 287.822C183.327 287.871 183.392 287.935 183.442 288.01C183.493 288.084 183.528 288.168 183.546 288.257C183.564 288.345 183.564 288.436 183.546 288.525C183.517 288.68 183.435 288.819 183.313 288.919C183.191 289.018 183.037 289.071 182.88 289.069Z" fill="white"/>
<path d="M182.88 351.751C169.403 353.574 147.52 353.546 134.886 343.591C122.251 333.636 124.89 325.068 129.745 321.491C134.6 317.914 138.816 313.834 130.466 305.892C122.115 297.95 108.706 285.193 104.354 266.058C100.002 246.922 102.151 234.954 110.691 230.97C118.974 227.107 121.163 233.254 126.236 245.93C131.309 258.605 142.719 247.738 152.484 251.696C162.249 255.654 161.855 263.487 162.467 270.219C163.079 276.951 166.302 278.814 171.837 278.814C177.372 278.814 182.88 281.997 182.88 288.334V351.751Z" fill="#04D361"/>
<path d="M182.88 329.529C182.822 329.542 182.762 329.542 182.703 329.529C182.119 329.366 168.179 325.313 147.874 306.667C126.25 286.811 116.05 257.027 115.941 256.728C115.889 256.557 115.905 256.372 115.986 256.212C116.067 256.052 116.207 255.93 116.376 255.871C116.546 255.815 116.731 255.827 116.891 255.906C117.051 255.985 117.174 256.124 117.233 256.293C117.328 256.592 127.433 286.05 148.799 305.661C168.818 324.062 182.921 328.182 183.071 328.223C183.156 328.248 183.236 328.29 183.306 328.346C183.376 328.402 183.433 328.471 183.476 328.549C183.519 328.627 183.546 328.713 183.556 328.802C183.566 328.891 183.558 328.981 183.533 329.066C183.489 329.204 183.401 329.323 183.284 329.406C183.166 329.49 183.024 329.533 182.88 329.529Z" fill="white"/>
<path d="M153.545 311.4C153.408 311.402 153.274 311.361 153.162 311.283C153.05 311.205 152.965 311.094 152.919 310.965C148.554 299.758 147.561 275.782 147.479 274.762C147.475 274.582 147.541 274.408 147.663 274.276C147.785 274.144 147.953 274.065 148.132 274.054C148.31 274.057 148.48 274.125 148.61 274.245C148.741 274.366 148.822 274.53 148.839 274.707C148.839 274.952 149.859 299.473 154.143 310.475C154.176 310.559 154.192 310.649 154.19 310.739C154.187 310.829 154.167 310.917 154.131 311C154.094 311.082 154.041 311.156 153.976 311.218C153.91 311.279 153.833 311.328 153.749 311.359C153.683 311.383 153.614 311.397 153.545 311.4Z" fill="white"/>
<path d="M153.436 327.516C152.182 327.526 150.929 327.462 149.682 327.326C149.593 327.315 149.507 327.287 149.428 327.243C149.35 327.199 149.281 327.139 149.225 327.069C149.17 326.998 149.129 326.917 149.105 326.83C149.08 326.744 149.073 326.653 149.084 326.564C149.095 326.475 149.123 326.388 149.167 326.31C149.211 326.232 149.27 326.163 149.341 326.107C149.412 326.052 149.493 326.01 149.579 325.986C149.666 325.962 149.756 325.955 149.846 325.966C149.968 325.966 162.63 327.407 168.437 321.491C168.497 321.42 168.572 321.361 168.656 321.32C168.74 321.279 168.832 321.255 168.925 321.251C169.019 321.246 169.112 321.262 169.2 321.295C169.287 321.329 169.367 321.38 169.434 321.446C169.5 321.512 169.553 321.59 169.588 321.677C169.622 321.764 169.639 321.858 169.636 321.951C169.633 322.045 169.611 322.137 169.571 322.222C169.53 322.306 169.473 322.382 169.402 322.443C165.2 326.782 157.87 327.516 153.436 327.516Z" fill="white"/>
<g opacity="0.1">
<path d="M143.644 69.9864L142.175 61.5136L134.613 66.4912C133.923 65.1313 132.943 63.9385 131.744 62.996L135.361 53.204L128.561 51.6944L123.584 61.2144C121.783 61.5182 120.037 62.0865 118.402 62.9008L116.24 55.72L108.161 62.0712L108.692 70.5032C107.047 72.346 105.555 74.32 104.231 76.4056L97.5671 76.0656L92.8887 86.5512L98.6143 88.9992C98.0165 91.168 97.6384 93.3915 97.4855 95.636L90.2095 102.327L91.6647 110.814L99.2399 105.836C99.9268 107.195 100.907 108.384 102.109 109.318L98.5599 119.123L105.36 120.619L112.486 113.683C114.132 113.425 113.724 110.324 115.519 109.44L117.681 116.594L125.746 110.256L125.542 106.938C127.174 105.115 133.349 101.103 134.681 99.0088L136.354 96.2888L141.033 85.8032L138.857 81.8592L136.436 76.7184L143.644 69.9864ZM118.96 97.88C112.758 102.749 110.8 103.823 109.753 97.3088C108.705 90.7944 112.255 80.8936 118.457 76.0112C124.658 71.1288 127.025 70.7888 128.14 77.2896C129.255 83.7904 125.175 93.0656 118.96 97.88Z" fill="#E0E0E0"/>
<path d="M128.616 51.6944L137.442 56.7808L132.465 66.2736L123.638 61.1872L128.616 51.6944Z" fill="#F5F5F5"/>
<path d="M151.002 66.6L143.44 71.5776L134.614 66.4912L142.175 61.5136L151.002 66.6Z" fill="#F5F5F5"/>
<path d="M149.791 90.8488L144.066 88.4144L135.239 83.328L140.965 85.7624L149.791 90.8488Z" fill="#E0E0E0"/>
<path d="M98.5464 119.123L107.373 124.196L110.99 114.404L102.164 109.318L98.5464 119.123Z" fill="#E0E0E0"/>
<path d="M126.426 121.68L117.614 116.594L115.451 109.44L124.278 114.526L126.426 121.68Z" fill="#E0E0E0"/>
<path d="M152.457 75.0728L151.002 66.6L143.44 71.5776C142.744 70.2171 141.76 69.0244 140.557 68.0824L144.174 58.2904L137.442 56.7808L132.451 66.3008C130.65 66.6046 128.904 67.1729 127.27 67.9872L125.121 60.8336L117.042 67.1848L117.573 75.6168C115.926 77.4726 114.434 79.4603 113.112 81.56L106.434 81.22L101.756 91.7056L107.482 94.1536C106.889 96.3283 106.511 98.5557 106.353 100.804L99.0903 107.4L100.546 115.886L108.107 110.909C108.803 112.265 109.787 113.454 110.99 114.39L107.373 124.182L114.173 125.692L119.15 116.172C120.958 115.872 122.71 115.298 124.346 114.472L126.494 121.626L134.573 115.288L134.042 106.856C135.687 105.013 137.179 103.039 138.503 100.954L145.181 101.28L149.859 90.7944L144.052 88.36C144.654 86.1869 145.037 83.959 145.194 81.7096L152.457 75.0728ZM127.8 103.021C121.612 107.89 115.682 106.57 114.554 100.07C113.425 93.5688 117.546 84.3344 123.747 79.4656C129.949 74.5968 135.865 75.9296 136.994 82.4304C138.122 88.9312 134.002 98.152 127.8 103.021Z" fill="#EBEBEB"/>
<path d="M125.121 60.8064L116.294 55.72L108.216 62.0712L117.042 67.1576L125.121 60.8064Z" fill="#F5F5F5"/>
<path d="M108.216 62.0712L108.746 70.5032L117.573 75.5896L117.042 67.1576L108.216 62.0712Z" fill="#E0E0E0"/>
<path d="M113.112 81.492L104.286 76.4056L97.6216 76.0792L106.434 81.1656L113.112 81.492Z" fill="#F5F5F5"/>
<path d="M97.6215 76.0792L92.9431 86.5512L101.756 91.6376L106.434 81.1656L97.6215 76.0792Z" fill="#E0E0E0"/>
<path d="M106.353 100.722L97.5399 95.636L90.2639 102.327L99.0767 107.414L106.353 100.722Z" fill="#F5F5F5"/>
<path d="M100.546 115.9L91.7191 110.814L90.2639 102.327L99.0767 107.414L100.546 115.9Z" fill="#E0E0E0"/>
<path d="M137.442 56.7808L128.616 51.6944L135.362 53.204L144.174 58.2904L137.442 56.7808Z" fill="#F5F5F5"/>
<path d="M104.122 31.5256V18.864L94.0448 23.4064C93.511 21.2582 92.5892 19.2256 91.3248 17.4088L97.676 4.61121L89.924 0.13681L82.0088 12.0368C79.803 11.8441 77.5806 12.0608 75.4536 12.676L74.3384 1.67362L63.3768 8.01121L62.2752 20.2512C59.8896 22.3651 57.6959 24.6862 55.72 27.1872L47.8048 24.4672L40.0528 37.904L46.3904 43.344C45.2193 46.3054 44.3092 49.3634 43.6704 52.4832L33.5928 59.5688V72.244L43.6704 67.7016C44.2041 69.8498 45.1259 71.8824 46.3904 73.6992L40.08 86.5104L47.832 90.9848L55.7472 79.0848C57.9529 79.2769 60.1752 79.0602 62.3024 78.4456L63.404 89.448L74.3656 83.1104L75.4808 70.8704C78.9021 69.6221 81.9329 67.4921 84.2664 64.696L89.9512 66.6952L97.7032 53.272L92.9432 49.192C93.9765 45.7898 94.3594 42.2233 94.072 38.6792L104.122 31.5256ZM68.8576 63.1592C60.4528 68.0144 55.2576 64.5192 55.2576 54.8496C55.2576 45.18 62.2072 33.2256 70.6256 28.3704C79.044 23.5152 84.1304 27.0104 84.1304 36.7616C84.1304 46.5128 77.276 58.2904 68.8576 63.1592Z" fill="#E0E0E0"/>
<path d="M98.7368 5.20961L89.924 0.13681L82.0088 12.0368L90.8216 17.1232L98.7368 5.20961Z" fill="#F5F5F5"/>
<path d="M112.949 23.9504L104.122 18.864L94.0447 23.4064L102.871 28.4928L112.949 23.9504Z" fill="#F5F5F5"/>
<path d="M72.1895 94.5344L63.3767 89.448L62.2751 78.4456L71.0879 83.532L72.1895 94.5344Z" fill="#E0E0E0"/>
<path d="M40.0391 86.5104L48.8655 91.5968L55.2166 78.7992L46.3903 73.7128L40.0391 86.5104Z" fill="#E0E0E0"/>
<path d="M112.949 36.68V24.0184L102.871 28.52C102.343 26.3699 101.421 24.3363 100.151 22.5224L106.502 9.72479L98.7504 5.23679L90.8352 17.1504C88.6294 16.951 86.4057 17.1678 84.28 17.7896L83.1648 6.75999L72.2032 13.0976L71.088 25.3376C68.7058 27.455 66.5124 29.7758 64.5328 32.2736L56.6176 29.5536L48.8656 42.9904L55.2168 48.4304C54.0396 51.3896 53.1293 54.4482 52.4968 57.5696L42.4192 64.6552V77.3304L52.4968 72.788C53.0247 74.9382 53.9469 76.9719 55.2168 78.7856L48.8656 91.5832L56.6176 96.0576L64.5328 84.1576C66.7386 84.3503 68.961 84.1336 71.088 83.5184L72.2032 94.5208L83.1648 88.1832L84.2664 75.9432C86.652 73.8293 88.8456 71.5082 90.8216 69.0072L98.7368 71.7272L106.489 58.304L100.138 52.864C101.314 49.9046 102.225 46.8461 102.858 43.7248L112.949 36.68ZM77.684 68.3136C69.2656 73.1688 62.4384 69.2248 62.4384 59.5144C62.4384 49.804 69.2384 37.9856 77.684 33.1168C86.1296 28.248 92.916 32.2056 92.916 41.916C92.916 51.6264 86.0888 63.3768 77.684 68.2456V68.3136Z" fill="#EBEBEB"/>
<path d="M55.7199 27.2144L64.5327 32.3008L56.6175 29.54L47.8047 24.44L55.7199 27.2144Z" fill="#F0F0F0"/>
<path d="M47.8039 24.4539L40.0498 37.8952L48.8733 42.9853L56.6274 29.544L47.8039 24.4539Z" fill="#F5F5F5"/>
<path d="M40.0391 37.8768L48.8655 42.9632L55.2166 48.4304L46.3903 43.3576L40.0391 37.8768Z" fill="#E0E0E0"/>
<path d="M43.6704 52.4968L52.4968 57.5832L42.4192 64.6688L33.5928 59.5824L43.6704 52.4968Z" fill="#F5F5F5"/>
<path d="M33.5928 59.5824L42.4192 64.6688V77.344L33.5928 72.2576V59.5824Z" fill="#E0E0E0"/>
<path d="M83.1647 6.76001L74.3383 1.67361L63.3767 8.0112L72.1895 13.0976L83.1647 6.76001Z" fill="#F5F5F5"/>
</g>
<path d="M196.317 369.948L324.157 296.127C324.438 296.028 324.682 295.844 324.855 295.601C325.027 295.357 325.12 295.066 325.12 294.767C325.12 294.469 325.027 294.177 324.855 293.934C324.682 293.69 324.438 293.506 324.157 293.407L312.338 286.607C311.606 286.239 310.798 286.047 309.979 286.047C309.159 286.047 308.351 286.239 307.619 286.607L179.738 360.36C179.457 360.459 179.213 360.643 179.04 360.887C178.868 361.13 178.775 361.421 178.775 361.72C178.775 362.019 178.868 362.31 179.04 362.553C179.213 362.797 179.457 362.981 179.738 363.08L191.598 369.88C192.324 370.259 193.13 370.462 193.949 370.474C194.769 370.486 195.579 370.306 196.317 369.948Z" fill="#E0E0E0" fill-opacity="0.1"/>
<path d="M320.648 11.112L205.374 77.6704C203.661 78.7887 202.235 80.2949 201.212 82.067C200.189 83.8391 199.597 85.8272 199.486 87.8704V361.326C199.486 365.079 202.124 366.602 205.374 364.726L320.648 298.167C322.364 297.051 323.792 295.546 324.815 293.773C325.838 292 326.428 290.011 326.537 287.967V14.512C326.537 10.7584 323.912 9.2352 320.648 11.112Z" fill="#455A64"/>
<path d="M205.374 77.6704L320.648 11.112C323.558 9.42561 325.965 10.4728 326.455 13.3968C326.183 11.5584 325.525 9.79844 324.524 8.23262C323.523 6.6668 322.202 5.33063 320.648 4.31201L315.861 1.59201C314.036 0.666121 312.018 0.183594 309.972 0.183594C307.926 0.183594 305.908 0.666121 304.083 1.59201L188.796 68.096C187.06 69.1848 185.628 70.6962 184.634 72.4888L201.213 82.0088C202.206 80.2304 203.639 78.7365 205.374 77.6704Z" fill="#37474F"/>
<path d="M182.88 351.751C182.992 353.794 183.583 355.783 184.606 357.555C185.629 359.327 187.055 360.833 188.769 361.951L193.569 364.671C195.231 365.502 197.05 365.973 198.906 366.053C200.762 366.133 202.614 365.819 204.341 365.134C201.621 366.194 199.458 364.63 199.458 361.271V87.8704C199.526 85.8186 200.121 83.8188 201.186 82.0632L184.607 72.5432C183.558 74.2855 182.964 76.2639 182.88 78.296V351.751Z" fill="#263238"/>
<path d="M208.543 114.105L317.52 51.2048C319.478 50.0896 321.056 51.0008 321.056 53.2448V255.64C320.991 256.867 320.636 258.06 320.022 259.124C319.407 260.188 318.55 261.091 317.52 261.76L208.584 324.66C206.625 325.789 205.048 324.878 205.048 322.62V120.225C205.11 119.002 205.458 117.811 206.065 116.748C206.673 115.685 207.521 114.779 208.543 114.105Z" fill="#202024"/>
<path d="M263.011 54.7544C262.41 55.1493 261.909 55.6799 261.55 56.3035C261.191 56.9271 260.983 57.6263 260.944 58.3448C260.944 59.7048 261.869 60.208 263.011 59.5416C263.615 59.1491 264.117 58.6191 264.476 57.995C264.836 57.3709 265.042 56.6705 265.078 55.9512C265.078 54.632 264.153 54.1016 263.011 54.7544Z" fill="#37474F"/>
<path d="M263.011 302.886C260.634 304.442 258.656 306.535 257.238 308.997C255.821 311.459 255.003 314.221 254.851 317.058C254.851 322.266 258.509 324.388 263.011 321.777C265.388 320.221 267.365 318.127 268.782 315.665C270.2 313.203 271.018 310.442 271.171 307.606C271.198 302.397 267.526 300.275 263.011 302.886Z" fill="#37474F"/>
<path d="M243.441 75.8072C242.246 76.6007 241.254 77.6639 240.545 78.9113C239.836 80.1586 239.431 81.5551 239.361 82.988C239.361 85.6264 241.21 86.7008 243.441 85.3816C244.649 84.5957 245.654 83.5357 246.375 82.2879C247.096 81.0401 247.512 79.6398 247.589 78.2008C247.589 75.5624 245.739 74.488 243.441 75.8072Z" fill="#37474F"/>
<path d="M253.6 74.9096C253.6 76.6776 254.96 77.344 256.551 76.4056L283.751 60.6704C284.594 60.1442 285.3 59.4265 285.813 58.5758C286.326 57.725 286.631 56.7652 286.703 55.7744C286.703 54.02 285.343 53.3536 283.751 54.292L256.551 70.0272C255.711 70.5521 255.005 71.2676 254.492 72.1159C253.98 72.9641 253.674 73.9212 253.6 74.9096Z" fill="#37474F"/>
<path d="M192.074 122.863C193.039 123.492 193.842 124.339 194.419 125.336C194.995 126.333 195.329 127.452 195.392 128.602C195.392 130.724 193.91 131.581 192.074 130.52C191.112 129.889 190.312 129.041 189.738 128.044C189.164 127.047 188.832 125.929 188.769 124.781C188.769 122.673 190.251 121.816 192.074 122.863Z" fill="#37474F"/>
<path d="M192.074 148.404C193.039 149.033 193.842 149.88 194.419 150.877C194.995 151.874 195.329 152.993 195.392 154.143C195.392 156.251 193.91 157.108 192.074 156.061C191.112 155.43 190.312 154.582 189.738 153.585C189.164 152.588 188.832 151.47 188.769 150.322C188.769 148.2 190.251 147.343 192.074 148.404Z" fill="#37474F"/>
<path d="M191.04 123.38C192.005 124.009 192.808 124.856 193.385 125.853C193.961 126.85 194.295 127.969 194.358 129.119C194.358 131.227 192.876 132.084 191.04 131.037C190.075 130.408 189.271 129.561 188.695 128.564C188.118 127.567 187.785 126.448 187.721 125.298C187.735 123.176 189.217 122.36 191.04 123.38Z" fill="#455A64"/>
<path d="M191.04 148.907C192.007 149.537 192.811 150.387 193.388 151.386C193.965 152.386 194.297 153.508 194.358 154.66C194.358 156.768 192.876 157.625 191.04 156.564C190.072 155.938 189.267 155.091 188.69 154.093C188.114 153.096 187.782 151.976 187.721 150.825C187.735 148.717 189.217 147.86 191.04 148.907Z" fill="#455A64"/>
<path d="M343.115 59.6504C343.115 57.3928 341.538 56.4816 339.579 57.6104L326.537 65.1312L230.643 120.51C229.613 121.18 228.756 122.083 228.141 123.146C227.527 124.21 227.173 125.404 227.107 126.63V328.971C227.107 331.229 228.685 332.14 230.643 331.011L326.578 275.618L339.579 268.111C340.609 267.442 341.466 266.539 342.081 265.475C342.695 264.412 343.05 263.218 343.115 261.991V59.6504Z" fill="#202024"/>
<path d="M344.475 59.6504C344.561 58.9684 344.443 58.2763 344.138 57.6606C343.832 57.045 343.352 56.5331 342.756 56.1891C342.161 55.8451 341.478 55.6843 340.792 55.7266C340.106 55.7689 339.448 56.0126 338.899 56.4272L326.455 63.6216L229.963 119.382C228.721 120.166 227.688 121.24 226.953 122.513C226.219 123.785 225.805 125.217 225.747 126.685V328.971C225.693 329.65 225.823 330.331 226.125 330.942C226.427 331.553 226.888 332.07 227.461 332.439C227.948 332.722 228.502 332.868 229.066 332.861C229.863 332.836 230.64 332.606 231.323 332.194L327.883 276.434L340.3 269.267C341.535 268.475 342.563 267.399 343.296 266.128C344.03 264.858 344.448 263.43 344.516 261.964L344.475 59.6504ZM326.482 274.109L325.367 274.762L230.018 329.814C229.857 329.938 229.672 330.023 229.474 330.066C229.276 330.108 229.072 330.106 228.875 330.059C228.698 329.95 228.522 329.57 228.522 328.944V126.63C228.592 125.643 228.886 124.684 229.38 123.827C229.875 122.969 230.558 122.235 231.378 121.68L326.632 66.6L340.232 58.7256C340.392 58.6025 340.578 58.5166 340.776 58.4743C340.973 58.4319 341.178 58.4342 341.374 58.4808C341.551 58.5896 341.728 58.9704 341.728 59.596V261.991C341.658 262.979 341.364 263.937 340.869 264.795C340.375 265.652 339.692 266.386 338.872 266.942L326.455 274.109H326.482Z" fill="#121214"/>
<path d="M285.111 106.666C297.351 99.6208 307.211 105.306 307.211 119.436C307.211 133.566 297.31 150.716 285.111 157.706C272.912 164.697 263.011 159.066 263.011 144.95C263.011 130.833 272.912 113.724 285.111 106.666Z" fill="#04D361"/>
<path d="M285.111 117.763C289.069 115.478 292.278 117.328 292.278 121.843C292.144 124.331 291.425 126.751 290.179 128.909C288.934 131.066 287.198 132.899 285.111 134.26C281.153 136.545 277.944 134.695 277.944 130.18C278.078 127.693 278.797 125.272 280.043 123.115C281.288 120.957 283.024 119.124 285.111 117.763Z" fill="#04D361"/>
<path d="M299.078 142.134C299.078 134.627 293.815 131.581 287.301 135.334L283.221 137.687C276.72 141.441 271.443 150.58 271.443 158.087V160.114C275.21 161.351 279.943 160.685 285.043 157.706C290.693 154.222 295.47 149.49 299.01 143.875L299.078 142.134Z" fill="#04D361"/>
<path opacity="0.7" d="M285.111 117.763C289.069 115.478 292.278 117.328 292.278 121.843C292.144 124.331 291.425 126.751 290.179 128.909C288.934 131.066 287.198 132.899 285.111 134.26C281.153 136.545 277.944 134.695 277.944 130.18C278.078 127.693 278.797 125.272 280.043 123.115C281.288 120.957 283.024 119.124 285.111 117.763Z" fill="white"/>
<path opacity="0.7" d="M299.078 142.134C299.078 134.627 293.815 131.581 287.301 135.334L283.221 137.687C276.72 141.441 271.443 150.58 271.443 158.087V160.114C275.21 161.351 279.943 160.685 285.043 157.706C290.693 154.222 295.47 149.49 299.01 143.875L299.078 142.134Z" fill="white"/>
<path d="M242.353 188.782L270.79 172.367C272.15 171.619 273.143 172.218 273.143 173.727V174.666C273.1 175.483 272.865 176.279 272.456 176.988C272.047 177.697 271.476 178.299 270.79 178.746L242.353 195.161C241.061 195.909 240 195.297 240 193.801V192.862C240.044 192.045 240.28 191.25 240.689 190.541C241.098 189.832 241.668 189.23 242.353 188.782Z" fill="#04D361"/>
<path opacity="0.1" d="M242.353 188.782L270.79 172.367C272.15 171.619 273.143 172.218 273.143 173.727V174.666C273.1 175.483 272.865 176.279 272.456 176.988C272.047 177.697 271.476 178.299 270.79 178.746L242.353 195.161C241.061 195.909 240 195.297 240 193.801V192.862C240.044 192.045 240.28 191.25 240.689 190.541C241.098 189.832 241.668 189.23 242.353 188.782Z" fill="black"/>
<path d="M241.183 208.598L327.217 158.93C327.856 158.55 328.386 158.849 328.386 159.61V169.647C328.362 170.055 328.244 170.451 328.041 170.805C327.839 171.159 327.556 171.461 327.217 171.687L241.183 221.354C240.53 221.735 240 221.422 240 220.674V210.638C240.023 210.229 240.143 209.831 240.348 209.476C240.554 209.122 240.84 208.821 241.183 208.598Z" fill="#04D361"/>
<path opacity="0.2" d="M241.183 208.598L327.217 158.93C327.856 158.55 328.386 158.849 328.386 159.61V169.647C328.362 170.055 328.244 170.451 328.041 170.805C327.839 171.159 327.556 171.461 327.217 171.687L241.183 221.354C240.53 221.735 240 221.422 240 220.674V210.638C240.023 210.229 240.143 209.831 240.348 209.476C240.554 209.122 240.84 208.821 241.183 208.598Z" fill="white"/>
<path d="M242.353 233.431L270.79 217.016C272.15 216.268 273.143 216.88 273.143 218.376V219.314C273.101 220.132 272.866 220.928 272.457 221.637C272.048 222.346 271.477 222.949 270.79 223.394L242.353 239.81C241.061 240.571 240 239.959 240 238.45V237.511C240.046 236.695 240.283 235.9 240.692 235.192C241.1 234.483 241.669 233.88 242.353 233.431Z" fill="#04D361"/>
<path opacity="0.1" d="M242.353 233.431L270.79 217.016C272.15 216.268 273.143 216.88 273.143 218.376V219.314C273.101 220.132 272.866 220.928 272.457 221.637C272.048 222.346 271.477 222.949 270.79 223.394L242.353 239.81C241.061 240.571 240 239.959 240 238.45V237.511C240.046 236.695 240.283 235.9 240.692 235.192C241.1 234.483 241.669 233.88 242.353 233.431Z" fill="black"/>
<path d="M241.183 253.246L327.217 203.579C327.856 203.198 328.386 203.511 328.386 204.259V214.296C328.362 214.703 328.244 215.1 328.041 215.454C327.839 215.807 327.556 216.11 327.217 216.336L241.183 266.003C240.53 266.384 240 266.085 240 265.323V255.286C240.023 254.877 240.143 254.48 240.348 254.125C240.554 253.771 240.84 253.47 241.183 253.246Z" fill="#04D361"/>
<path opacity="0.2" d="M241.183 253.246L327.217 203.579C327.856 203.198 328.386 203.511 328.386 204.259V214.296C328.362 214.703 328.244 215.1 328.041 215.454C327.839 215.807 327.556 216.11 327.217 216.336L241.183 266.003C240.53 266.384 240 266.085 240 265.323V255.286C240.023 254.877 240.143 254.48 240.348 254.125C240.554 253.771 240.84 253.47 241.183 253.246Z" fill="white"/>
<path d="M275.496 258.945L309.496 239.347C310.856 238.586 311.862 239.198 311.862 240.707V251.206C311.818 252.025 311.58 252.821 311.169 253.53C310.758 254.24 310.184 254.841 309.496 255.286L275.496 274.898C274.136 275.646 273.143 275.034 273.143 273.538V263.025C273.19 262.208 273.428 261.414 273.836 260.706C274.245 259.998 274.813 259.395 275.496 258.945Z" fill="#04D361"/>
<path opacity="0.1" d="M275.496 258.945L309.496 239.347C310.856 238.586 311.862 239.198 311.862 240.707V251.206C311.818 252.025 311.58 252.821 311.169 253.53C310.758 254.24 310.184 254.841 309.496 255.286L275.496 274.898C274.136 275.646 273.143 275.034 273.143 273.538V263.025C273.19 262.208 273.428 261.414 273.836 260.706C274.245 259.998 274.813 259.395 275.496 258.945Z" fill="black"/>
<path d="M356.008 214.636C356.008 214.636 339.307 191.598 338.328 188.796C337.553 186.729 338.328 183.655 338.573 182.227C338.818 180.799 339.035 177.617 339.28 176.787C339.688 175.237 337.689 175.55 336.56 176.964C335.431 178.378 335.05 181.207 334.466 181.67C333.881 182.132 329.434 175.645 327.108 172.653C324.782 169.661 323.327 167.838 321.899 168.954C320.879 169.756 321.641 171.497 323.327 174.054C324.312 175.43 325.22 176.861 326.047 178.338C326.306 178.895 324.918 178.936 324.17 180.092C323.586 180.99 324.17 182.445 323.354 183.138C322.852 183.521 322.508 184.074 322.388 184.694C322.267 185.313 322.379 185.955 322.702 186.498C324.215 188.875 326.168 190.943 328.454 192.59C330.957 194.318 331.963 194.93 333.446 197.282C334.928 199.635 348.229 223.666 349.126 225.108C350.024 226.55 351.751 229.487 354.376 229.569C357.001 229.65 378.489 211.154 379.59 210.23C383.126 207.278 384.255 206.857 384.854 209.509C385.06 210.452 385.215 211.405 385.316 212.365C385.738 215.738 388.036 227.787 388.036 227.787C388.036 227.787 398.916 233.05 407.851 230.507C416.786 227.964 419.806 224.17 419.806 224.17L415.331 216.88C416.542 213.874 422.131 201.689 423.94 193.162L395.924 188.633C395.353 188.51 394.428 188.279 393.204 187.966C391.667 187.558 387.764 186.212 384.813 188.796C375.184 197.187 356.035 214.636 356.035 214.636" fill="#FFA8A7"/>
<path d="M411.55 355.994L406.532 362.971C408.813 364.036 411.305 364.571 413.822 364.535C418.323 364.698 419.561 363.175 419.724 362.876C420.486 361.244 419.302 358.306 418.976 355.777L411.55 355.994Z" fill="#37474F"/>
<path d="M406.818 359.626C406.818 359.626 400.725 359.231 396.522 358.714C392.32 358.198 388.988 360.238 389.967 361.965C390.946 363.692 393.272 365.134 396.89 366.344C399.977 367.391 403.69 368.139 406.899 369.064C410.109 369.989 412.339 371.199 414.202 370.546C416.283 369.826 417.181 368.996 417.004 367.473C416.55 365.306 415.987 363.164 415.318 361.054L406.818 359.626Z" fill="#37474F"/>
<path d="M419.724 348.99C419.724 348.99 418.962 355.328 418.908 356.688C418.854 358.048 412.72 358.483 411.55 355.994L411.36 348.242L419.724 348.99Z" fill="#F28F8F"/>
<path d="M413.55 352.88L415.739 362.509C415.739 362.509 415.943 363.678 410.938 364.426C405.934 365.174 398.073 361.802 396.726 361.122C395.38 360.442 395.23 359.068 400.154 359.34C405.077 359.612 406.818 359.626 406.818 359.626L405.213 355.369L413.55 352.88Z" fill="#FFA8A7"/>
<path d="M423.858 193.08L427.326 192.114C427.326 192.114 434.575 215.058 435.378 217.274C436.18 219.491 437.091 221.83 435.527 224.564C433.664 227.814 423.858 240.884 423.858 240.884L417.63 234.791L424.702 221.844L418.446 209.196L423.858 193.08Z" fill="#F28F8F"/>
<path d="M388.24 163.282C387.427 161.756 387.014 160.049 387.04 158.32C387.067 156.59 387.531 154.896 388.39 153.395C391.844 146.99 399.542 143.875 408.708 145.058C412.951 145.616 417.956 149.138 420.69 154.402C423.709 160.236 423.994 171.986 424.77 176.434L388.24 163.282Z" fill="#37474F"/>
<path d="M387.995 165.798C387.995 165.798 385.819 169.946 386.2 170.327C386.764 170.657 387.38 170.887 388.022 171.007L387.995 165.798Z" fill="#FFA8A7"/>
<path d="M394.605 152.688C392.238 154.225 388.158 157.054 387.982 166.37C387.791 175.89 389.151 179.031 390.566 180.133C391.518 180.881 397.107 180.5 399.501 179.942C401.894 179.385 408.79 175.971 411.278 170.79C414.202 164.697 413.604 155.83 409.266 153.11C407.057 151.804 404.554 151.08 401.99 151.006C399.425 150.933 396.884 151.511 394.605 152.688Z" fill="#FFA8A7"/>
<path d="M419.724 224.115C423.913 230.643 427.884 236.355 428.754 243.726C430.55 259.217 424.674 276.924 423.41 288.389C425.788 291.65 427.159 295.536 427.354 299.568C427.354 304.314 419.724 348.99 419.724 348.99C419.724 348.99 414.175 350.677 411.36 348.242L406.124 266.058L408.844 256.048L419.724 224.115Z" fill="#04D361"/>
<path opacity="0.2" d="M419.724 224.115C423.913 230.643 427.884 236.355 428.754 243.726C430.55 259.217 424.674 276.924 423.41 288.389C425.788 291.65 427.159 295.536 427.354 299.568C427.354 304.314 419.724 348.99 419.724 348.99C419.724 348.99 414.175 350.677 411.36 348.242L406.124 266.058L408.844 256.048L419.724 224.115Z" fill="black"/>
<path d="M406.124 266.058L408.844 256.048C414.052 254.677 419.075 252.682 423.804 250.105C423.804 250.105 420.975 255.259 412.842 258.088L408.64 270.94L408.286 300.384L406.124 266.058Z" fill="#04D361"/>
<path opacity="0.3" d="M406.124 266.058L408.844 256.048C414.052 254.677 419.075 252.682 423.804 250.105C423.804 250.105 420.975 255.259 412.842 258.088L408.64 270.94L408.286 300.384L406.124 266.058Z" fill="black"/>
<path d="M419.724 224.115C421.968 227.787 427.326 234.043 426.184 240.068C424.824 247.358 420.88 252.485 408.885 256.048L397.624 296.848C397.624 296.848 403.486 302.288 405.281 307.551C407.076 312.814 413.55 352.907 413.55 352.907C413.55 352.907 411.537 356.185 405.213 355.396C405.213 355.396 383.167 305.076 381.617 301.798C379.735 298.479 379.076 294.605 379.754 290.85C380.447 285.574 387.914 227.814 387.914 227.814L419.724 224.115Z" fill="#04D361"/>
<path opacity="0.2" d="M419.724 224.115C421.968 227.787 427.326 234.043 426.184 240.068C424.824 247.358 420.88 252.485 408.885 256.048L397.624 296.848C397.624 296.848 403.486 302.288 405.281 307.551C407.076 312.814 413.55 352.907 413.55 352.907C413.55 352.907 411.537 356.185 405.213 355.396C405.213 355.396 383.167 305.076 381.617 301.798C379.735 298.479 379.076 294.605 379.754 290.85C380.447 285.574 387.914 227.814 387.914 227.814L419.724 224.115Z" fill="black"/>
<path d="M423.858 193.08L395.842 188.551C395.271 188.429 394.346 188.198 393.122 187.885C393.122 187.885 391.926 205.456 384.731 209.482C384.908 210.325 385.058 211.263 385.194 212.338C385.615 215.71 387.914 227.76 387.914 227.76C387.914 227.76 398.794 233.023 407.729 230.48C416.664 227.937 419.683 224.142 419.683 224.142L415.209 216.853C416.46 213.82 422.09 201.634 423.858 193.08Z" fill="#04D361"/>
<path opacity="0.7" d="M423.858 193.08L395.842 188.551C395.271 188.429 394.346 188.198 393.122 187.885C393.122 187.885 391.926 205.456 384.731 209.482C384.908 210.325 385.058 211.263 385.194 212.338C385.615 215.71 387.914 227.76 387.914 227.76C387.914 227.76 398.794 233.023 407.729 230.48C416.664 227.937 419.683 224.142 419.683 224.142L415.209 216.853C416.46 213.82 422.09 201.634 423.858 193.08Z" fill="white"/>
<path d="M416.474 213.956C412.753 216.19 408.855 218.114 404.818 219.709C408.482 219.636 412.068 218.644 415.25 216.826L416.474 213.956Z" fill="#04D361"/>
<path d="M393.911 153.15C393.911 153.15 392.551 161.99 395.761 167.186C395.761 167.186 396.958 163.663 399.936 164.33C402.914 164.996 403.078 168.926 400.983 171.13C400.451 171.748 399.755 172.203 398.976 172.444C398.196 172.684 397.365 172.7 396.577 172.49C396.577 172.49 396.101 178.882 395.842 184.24C395.584 189.598 394.17 201.281 400.194 206C406.219 210.719 421.342 212.378 428.428 202.478C432.372 196.97 427.136 187.232 424.702 176.311C422.458 166.274 421.193 151.396 410.544 149.002C399.895 146.609 393.911 153.15 393.911 153.15Z" fill="#37474F"/>
<g opacity="0.1">
<path d="M432.984 32.3688L430.74 33.7288C430.928 32.9304 431.033 32.1145 431.053 31.2944C431.053 26.7384 427.857 24.9024 423.913 27.2144C422.713 27.9384 421.642 28.8577 420.744 29.9344C420.744 23.8144 416.447 21.3256 411.142 24.3856C408.348 26.2084 406.022 28.6643 404.353 31.5542C402.685 34.4441 401.722 37.6865 401.541 41.0184C401.541 41.3312 401.541 41.6304 401.541 41.9296C400.175 41.7577 398.792 42.0757 397.638 42.8272C395.559 44.1814 393.83 46.0066 392.589 48.1546C391.349 50.3025 390.632 52.7128 390.498 55.1896C390.497 55.7654 390.556 56.3397 390.675 56.9032L389.478 57.5968C386.227 59.4736 383.589 63.132 383.589 65.7568C383.589 68.3816 386.227 69.0072 389.478 67.1168L432.998 42.0248C436.248 40.148 438.887 36.4896 438.887 33.8648C438.887 31.24 436.235 30.4784 432.984 32.3688Z" fill="#EBEBEB"/>
</g>
</svg>
