<svg width="22" height="22" viewBox="0 0 22 22" fill="none" xmlns="http://www.w3.org/2000/svg">
<g clip-path="url(#clip0)">
<path d="M17.1875 8.24999H16.5V5.49999C16.5 2.46674 14.0332 -7.62939e-06 11 -7.62939e-06C7.96675 -7.62939e-06 5.5 2.46674 5.5 5.49999V8.24999H4.8125C3.67583 8.24999 2.75 9.17491 2.75 10.3125V19.9375C2.75 21.0751 3.67583 22 4.8125 22H17.1875C18.3242 22 19.25 21.0751 19.25 19.9375V10.3125C19.25 9.17491 18.3242 8.24999 17.1875 8.24999ZM7.33333 5.49999C7.33333 3.47783 8.97783 1.83333 11 1.83333C13.0222 1.83333 14.6667 3.47783 14.6667 5.49999V8.24999H7.33333V5.49999ZM11.9167 15.3285V17.4167C11.9167 17.9227 11.5069 18.3333 11 18.3333C10.4931 18.3333 10.0833 17.9227 10.0833 17.4167V15.3285C9.53792 15.0104 9.16667 14.4256 9.16667 13.75C9.16667 12.7389 9.98892 11.9167 11 11.9167C12.0111 11.9167 12.8333 12.7389 12.8333 13.75C12.8333 14.4256 12.4621 15.0104 11.9167 15.3285Z" fill="#202024"/>
</g>
<defs>
<clipPath id="clip0">
<rect width="22" height="22" fill="white"/>
</clipPath>
</defs>
</svg>
