<svg width="22" height="22" viewBox="0 0 22 22" fill="none" xmlns="http://www.w3.org/2000/svg">
<g clip-path="url(#clip0)">
<path d="M10.8432 10.5975C12.2991 10.5975 13.5598 10.0753 14.5899 9.04505C15.62 8.01498 16.1422 6.75463 16.1422 5.29856C16.1422 3.843 15.62 2.58248 14.5897 1.55207C13.5595 0.522169 12.299 0 10.8432 0C9.38716 0 8.1268 0.522169 7.09673 1.55224C6.06665 2.58231 5.54431 3.84283 5.54431 5.29856C5.54431 6.75463 6.06665 8.01515 7.09689 9.04522C8.12714 10.0751 9.38766 10.5975 10.8432 10.5975Z" fill="#202024"/>
<path d="M20.1149 16.9169C20.0852 16.4882 20.0251 16.0206 19.9367 15.5268C19.8474 15.0293 19.7324 14.559 19.5948 14.1291C19.4526 13.6848 19.2592 13.2461 19.0202 12.8256C18.7721 12.3892 18.4808 12.0092 18.1538 11.6965C17.8119 11.3694 17.3933 11.1064 16.9092 10.9145C16.4268 10.7237 15.8922 10.627 15.3204 10.627C15.0958 10.627 14.8786 10.7192 14.4592 10.9922C14.201 11.1606 13.899 11.3553 13.562 11.5706C13.2738 11.7543 12.8834 11.9263 12.4012 12.0821C11.9307 12.2343 11.453 12.3115 10.9815 12.3115C10.5101 12.3115 10.0325 12.2343 9.56155 12.0821C9.07983 11.9265 8.68942 11.7544 8.40157 11.5708C8.06772 11.3575 7.76559 11.1628 7.50359 10.9921C7.08464 10.719 6.86728 10.6268 6.6427 10.6268C6.07068 10.6268 5.53625 10.7237 5.05403 10.9147C4.5703 11.1062 4.15152 11.3692 3.80928 11.6967C3.48248 12.0096 3.19093 12.3894 2.94319 12.8256C2.70435 13.2461 2.51099 13.6847 2.36865 14.1293C2.23119 14.5591 2.11621 15.0293 2.02692 15.5268C1.93846 16.0199 1.87837 16.4877 1.84866 16.9174C1.81946 17.3383 1.80469 17.7752 1.80469 18.2165C1.80469 19.3649 2.16975 20.2946 2.88965 20.9803C3.60065 21.6568 4.54143 22.0001 5.68547 22.0001H16.2786C17.4227 22.0001 18.3631 21.657 19.0743 20.9803C19.7943 20.2951 20.1594 19.3652 20.1594 18.2163C20.1592 17.7731 20.1443 17.3358 20.1149 16.9169Z" fill="#202024"/>
</g>
<defs>
<clipPath id="clip0">
<rect width="22" height="22" fill="white"/>
</clipPath>
</defs>
</svg>
